<svg width="84" height="84" viewBox="0 0 84 84" fill="none" xmlns="http://www.w3.org/2000/svg">
<path d="M53.4267 55.351L57.24 63.551C57.24 63.551 74.3822 67.191 74.3822 75.8488C74.3822 81.9999 66.7556 81.9999 66.7556 81.9999H46.4445L36.4445 76.4443" stroke="#5F6F52" stroke-width="4" stroke-linecap="round" stroke-linejoin="round"/>
<path d="M30.5734 55.351L26.7645 63.551C26.7645 63.551 9.6178 67.191 9.6178 75.8488C9.6178 81.9999 17.2445 81.9999 17.2445 81.9999H26.4445L36.4445 76.4443L48.6667 68.6666" stroke="#5F6F52" stroke-width="4" stroke-linecap="round" stroke-linejoin="round"/>
<path d="M2 59.4489C2 59.4489 11.5244 57.4 17.24 55.3511C22.9511 26.6489 40.0889 28.6978 42 28.6978C43.9067 28.6978 61.0489 26.6489 66.76 55.3511C72.4756 57.3956 82 59.4489 82 59.4489M42 19.7778C44.3575 19.7778 46.6184 18.8413 48.2854 17.1743C49.9524 15.5073 50.8889 13.2464 50.8889 10.8889C50.8889 8.53141 49.9524 6.27048 48.2854 4.60349C46.6184 2.9365 44.3575 2 42 2C39.6425 2 37.3816 2.9365 35.7146 4.60349C34.0476 6.27048 33.1111 8.53141 33.1111 10.8889C33.1111 13.2464 34.0476 15.5073 35.7146 17.1743C37.3816 18.8413 39.6425 19.7778 42 19.7778Z" stroke="#5F6F52" stroke-width="4" stroke-linecap="round" stroke-linejoin="round"/>
</svg>
