<svg width="46" height="40" viewBox="0 0 46 40" fill="none" xmlns="http://www.w3.org/2000/svg">
<path d="M16.5586 9.09817C16.7054 8.80439 16.9371 8.5615 17.2236 8.401C17.5101 8.24049 17.8382 8.16978 18.1654 8.19804C18.4926 8.2263 18.8038 8.35222 19.0585 8.55948C19.3133 8.76673 19.4998 9.04575 19.5941 9.36034L23.3218 21.7889L26.3942 15.6525C26.5303 15.3803 26.7394 15.1515 26.9983 14.9915C27.2571 14.8316 27.5554 14.7468 27.8597 14.7468C28.1639 14.7468 28.4622 14.8316 28.721 14.9915C28.9799 15.1515 29.189 15.3803 29.3252 15.6525L32.1455 21.3014H42.0548C43.5302 18.2598 44.2787 14.9169 44.2413 11.5366C44.1768 5.17584 39.0736 0 32.8655 0C27.9406 0 24.6726 3.02521 22.9398 5.22295C21.2111 3.02214 17.9391 0 13.0142 0C6.80606 0 1.70293 5.17584 1.63841 11.5366C1.61193 13.733 1.92031 15.9207 2.55294 18.0243H12.0956L16.5586 9.09817Z" fill="#fff"/>
<path d="M29.6674 23.6734L27.8557 20.0501L24.4055 26.9505C24.2694 27.2226 24.0601 27.4514 23.8013 27.6113C23.5425 27.7712 23.2442 27.8558 22.94 27.8558C22.8943 27.8558 22.8471 27.8538 22.7987 27.8497C22.4707 27.8225 22.1585 27.6971 21.9028 27.49C21.6471 27.2828 21.4596 27.0035 21.3649 26.6883L17.6372 14.2598L14.5649 20.3962C14.4294 20.6669 14.2216 20.8948 13.9646 21.0546C13.7075 21.2144 13.4112 21.2999 13.1086 21.3015H3.82504C4.78087 23.3013 6.05316 25.2696 7.64189 27.2065C9.56414 29.5497 13.0492 33.2959 21.0976 38.7595C21.6404 39.1315 22.283 39.3306 22.941 39.3306C23.599 39.3306 24.2416 39.1315 24.7844 38.7595C32.8329 33.2959 36.3179 29.5497 38.2402 27.2065C38.9325 26.3638 39.5819 25.4868 40.186 24.5787H31.1329C30.8286 24.5787 30.5304 24.494 30.2715 24.3341C30.0127 24.1742 29.8035 23.9454 29.6674 23.6734ZM44.2414 21.3015H42.055C41.5102 22.4367 40.8856 23.5318 40.186 24.5787H44.2414C44.676 24.5787 45.0928 24.406 45.4001 24.0987C45.7074 23.7915 45.88 23.3747 45.88 22.9401C45.88 22.5055 45.7074 22.0887 45.4001 21.7815C45.0928 21.4742 44.676 21.3015 44.2414 21.3015ZM1.63857 18.0244C1.204 18.0244 0.787218 18.197 0.479926 18.5043C0.172635 18.8116 0 19.2284 0 19.663C0 20.0975 0.172635 20.5143 0.479926 20.8216C0.787218 21.1289 1.204 21.3015 1.63857 21.3015H3.82504C3.31831 20.2431 2.8931 19.1475 2.5531 18.0244H1.63857Z" fill="#fff"/>
</svg>
