<svg width="100" height="100" viewBox="0 0 100 100" fill="none" xmlns="http://www.w3.org/2000/svg">
<rect x="1.5" y="1.5" width="97" height="97" rx="48.5" stroke="#5F6F52" stroke-width="3"/>
<path d="M35.1818 73.5V70.3864L50.3864 53.2955C52.3712 51.053 53.9697 49.1364 55.1818 47.5455C56.3939 45.9545 57.2727 44.4848 57.8182 43.1364C58.3788 41.7879 58.6591 40.3864 58.6591 38.9318C58.6591 37.1591 58.2424 35.6136 57.4091 34.2955C56.5909 32.9621 55.4621 31.9242 54.0227 31.1818C52.5833 30.4394 50.9621 30.0682 49.1591 30.0682C47.25 30.0682 45.5758 30.4773 44.1364 31.2955C42.7121 32.1136 41.6061 33.2348 40.8182 34.6591C40.0303 36.0833 39.6364 37.7197 39.6364 39.5682H35.5682C35.5682 36.9924 36.1591 34.7121 37.3409 32.7273C38.5379 30.7273 40.1667 29.1591 42.2273 28.0227C44.303 26.8864 46.6515 26.3182 49.2727 26.3182C51.8636 26.3182 54.1667 26.8788 56.1818 28C58.197 29.1061 59.7803 30.6136 60.9318 32.5227C62.0833 34.4318 62.6591 36.5682 62.6591 38.9318C62.6591 40.6439 62.3561 42.303 61.75 43.9091C61.1591 45.5152 60.1364 47.303 58.6818 49.2727C57.2273 51.2424 55.2121 53.6515 52.6364 56.5L41.0909 69.3864V69.6818H64.1136V73.5H35.1818Z" fill="#5F6F52"/>
</svg>
