<svg width="100" height="100" viewBox="0 0 100 100" fill="none" xmlns="http://www.w3.org/2000/svg">
<rect x="1.5" y="1.5" width="97" height="97" rx="48.5" stroke="#5F6F52" stroke-width="3"/>
<path d="M49.7955 74.1364C46.9318 74.1364 44.3712 73.6212 42.1136 72.5909C39.8561 71.5455 38.0682 70.0985 36.75 68.25C35.4318 66.4015 34.7348 64.2727 34.6591 61.8636H38.9545C39.0303 63.5606 39.553 65.0455 40.5227 66.3182C41.4924 67.5758 42.7803 68.5606 44.3864 69.2727C45.9924 69.9697 47.7803 70.3182 49.75 70.3182C51.9015 70.3182 53.7955 69.9167 55.4318 69.1136C57.0833 68.3106 58.3712 67.2121 59.2955 65.8182C60.2348 64.4091 60.7045 62.8182 60.7045 61.0455C60.7045 59.1667 60.2273 57.5076 59.2727 56.0682C58.3182 54.6288 56.947 53.5076 55.1591 52.7045C53.3864 51.9015 51.2652 51.5 48.7955 51.5H46.0682V47.6818H48.7955C50.8106 47.6818 52.5909 47.3182 54.1364 46.5909C55.697 45.8485 56.9242 44.8106 57.8182 43.4773C58.7121 42.1439 59.1591 40.5758 59.1591 38.7727C59.1591 37.0606 58.7727 35.553 58 34.25C57.2273 32.947 56.1364 31.9242 54.7273 31.1818C53.3333 30.4394 51.7045 30.0682 49.8409 30.0682C48.0379 30.0682 46.3864 30.4167 44.8864 31.1136C43.3864 31.8106 42.1742 32.7955 41.25 34.0682C40.3409 35.3409 39.8561 36.8485 39.7955 38.5909H35.6818C35.7424 36.1667 36.4091 34.0379 37.6818 32.2045C38.9697 30.3561 40.6742 28.9167 42.7955 27.8864C44.9318 26.8409 47.2955 26.3182 49.8864 26.3182C52.6288 26.3182 55 26.8788 57 28C59 29.1212 60.5455 30.6136 61.6364 32.4773C62.7424 34.3258 63.2955 36.3636 63.2955 38.5909C63.2955 41.2424 62.5758 43.5152 61.1364 45.4091C59.697 47.2879 57.7576 48.5909 55.3182 49.3182V49.6136C58.2879 50.2045 60.6212 51.5227 62.3182 53.5682C64.0303 55.5985 64.8864 58.0909 64.8864 61.0455C64.8864 63.5303 64.2348 65.7652 62.9318 67.75C61.6288 69.7197 59.8409 71.2803 57.5682 72.4318C55.3106 73.5682 52.7197 74.1364 49.7955 74.1364Z" fill="#5F6F52"/>
</svg>
