<svg width="202" height="40" viewBox="0 0 202 40" fill="none" xmlns="http://www.w3.org/2000/svg">
<path d="M16.5585 9.09817C16.7053 8.80439 16.937 8.5615 17.2235 8.401C17.51 8.24049 17.8381 8.16978 18.1653 8.19804C18.4925 8.2263 18.8036 8.35222 19.0584 8.55948C19.3131 8.76673 19.4997 9.04575 19.594 9.36034L23.3217 21.7889L26.394 15.6525C26.5301 15.3803 26.7393 15.1515 26.9982 14.9915C27.257 14.8316 27.5553 14.7468 27.8595 14.7468C28.1638 14.7468 28.4621 14.8316 28.7209 14.9915C28.9797 15.1515 29.1889 15.3803 29.325 15.6525L32.1454 21.3014H42.0547C43.53 18.2598 44.2785 14.9169 44.2412 11.5366C44.1766 5.17584 39.0735 0 32.8654 0C27.9404 0 24.6725 3.02521 22.9397 5.22295C21.211 3.02214 17.939 0 13.0141 0C6.80594 0 1.70281 5.17584 1.63829 11.5366C1.61181 13.733 1.92019 15.9207 2.55282 18.0243H12.0954L16.5585 9.09817Z" fill="#5F6F52"/>
<path d="M29.6674 23.6734L27.8557 20.0501L24.4055 26.9505C24.2694 27.2226 24.0601 27.4514 23.8013 27.6113C23.5425 27.7712 23.2442 27.8558 22.94 27.8558C22.8943 27.8558 22.8471 27.8538 22.7987 27.8497C22.4707 27.8225 22.1585 27.6971 21.9028 27.49C21.6471 27.2828 21.4596 27.0035 21.3649 26.6883L17.6372 14.2598L14.5649 20.3962C14.4294 20.6669 14.2216 20.8948 13.9646 21.0546C13.7075 21.2144 13.4112 21.2999 13.1086 21.3015H3.82504C4.78087 23.3013 6.05316 25.2696 7.64189 27.2065C9.56414 29.5497 13.0492 33.2959 21.0976 38.7595C21.6404 39.1315 22.283 39.3306 22.941 39.3306C23.599 39.3306 24.2416 39.1315 24.7844 38.7595C32.8329 33.2959 36.3179 29.5497 38.2402 27.2065C38.9325 26.3638 39.5819 25.4868 40.186 24.5787H31.1329C30.8286 24.5787 30.5304 24.494 30.2715 24.3341C30.0127 24.1742 29.8035 23.9454 29.6674 23.6734ZM44.2414 21.3015H42.055C41.5102 22.4367 40.8856 23.5318 40.186 24.5787H44.2414C44.676 24.5787 45.0928 24.406 45.4001 24.0987C45.7074 23.7915 45.88 23.3747 45.88 22.9401C45.88 22.5055 45.7074 22.0887 45.4001 21.7815C45.0928 21.4742 44.676 21.3015 44.2414 21.3015ZM1.63857 18.0244C1.204 18.0244 0.787218 18.197 0.479926 18.5043C0.172635 18.8116 0 19.2284 0 19.663C0 20.0975 0.172635 20.5143 0.479926 20.8216C0.787218 21.1289 1.204 21.3015 1.63857 21.3015H3.82504C3.31831 20.2431 2.8931 19.1475 2.5531 18.0244H1.63857Z" fill="#5F6F52"/>
<path d="M72.9268 9.74725V16.509C72.6611 16.8293 72.251 17.1769 71.6963 17.5519C71.1416 17.9191 70.4268 18.2355 69.5518 18.5012C68.6768 18.7668 67.6182 18.8996 66.376 18.8996C65.2744 18.8996 64.2705 18.7199 63.3643 18.3605C62.458 17.9933 61.6768 17.4582 61.0205 16.7551C60.3721 16.0519 59.8721 15.1926 59.5205 14.1769C59.1689 13.1535 58.9932 11.9855 58.9932 10.673V9.60663C58.9932 8.29413 59.1611 7.12616 59.4971 6.10272C59.8408 5.07928 60.3291 4.216 60.9619 3.51288C61.5947 2.80975 62.3486 2.2746 63.2236 1.90741C64.0986 1.54022 65.0713 1.35663 66.1416 1.35663C67.626 1.35663 68.8447 1.59882 69.7979 2.08319C70.751 2.55975 71.4775 3.22382 71.9775 4.07538C72.4854 4.91913 72.7979 5.88788 72.915 6.98163H69.5049C69.4189 6.4035 69.2549 5.8996 69.0127 5.46991C68.7705 5.04022 68.4229 4.70428 67.9697 4.4621C67.5244 4.21991 66.9463 4.09882 66.2354 4.09882C65.6494 4.09882 65.126 4.21991 64.665 4.4621C64.2119 4.69647 63.8291 5.04413 63.5166 5.50507C63.2041 5.966 62.9658 6.53632 62.8018 7.216C62.6377 7.89569 62.5557 8.68475 62.5557 9.58319V10.673C62.5557 11.5637 62.6416 12.3527 62.8135 13.0402C62.9854 13.7199 63.2393 14.2941 63.5752 14.7629C63.9189 15.2238 64.3408 15.5715 64.8408 15.8058C65.3408 16.0402 65.9229 16.1574 66.5869 16.1574C67.1416 16.1574 67.6025 16.1105 67.9697 16.0168C68.3447 15.923 68.6455 15.8098 68.8721 15.6769C69.1064 15.5363 69.2861 15.4035 69.4111 15.2785V12.2551H66.2002V9.74725H72.9268ZM78.9268 8.75116V18.6652H75.5518V5.98553H78.7275L78.9268 8.75116ZM82.7471 5.9035L82.6885 9.03241C82.5244 9.00897 82.3252 8.98944 82.0908 8.97382C81.8643 8.95038 81.6572 8.93866 81.4697 8.93866C80.9932 8.93866 80.5791 9.00116 80.2275 9.12616C79.8838 9.24335 79.5947 9.41913 79.3604 9.6535C79.1338 9.88788 78.9619 10.173 78.8447 10.509C78.7354 10.8449 78.6729 11.2277 78.6572 11.6574L77.9775 11.4465C77.9775 10.6262 78.0596 9.87225 78.2236 9.18475C78.3877 8.48944 78.626 7.88397 78.9385 7.36835C79.2588 6.85272 79.6494 6.45428 80.1104 6.17303C80.5713 5.89178 81.0986 5.75116 81.6924 5.75116C81.8799 5.75116 82.0713 5.76678 82.2666 5.79803C82.4619 5.82147 82.6221 5.85663 82.7471 5.9035ZM89.9424 18.8996C88.958 18.8996 88.0752 18.7433 87.2939 18.4308C86.5127 18.1105 85.8486 17.6691 85.3018 17.1066C84.7627 16.5441 84.3486 15.8918 84.0596 15.1496C83.7705 14.3996 83.626 13.6027 83.626 12.759V12.2902C83.626 11.3293 83.7627 10.4504 84.0361 9.6535C84.3096 8.85663 84.7002 8.16522 85.208 7.57928C85.7236 6.99335 86.3486 6.54413 87.083 6.23163C87.8174 5.91132 88.6455 5.75116 89.5674 5.75116C90.4658 5.75116 91.2627 5.8996 91.958 6.19647C92.6533 6.49335 93.2354 6.91522 93.7041 7.4621C94.1807 8.00897 94.54 8.66522 94.7822 9.43085C95.0244 10.1887 95.1455 11.0324 95.1455 11.9621V13.3683H85.0674V11.1183H91.8291V10.8605C91.8291 10.3918 91.7432 9.97382 91.5713 9.60663C91.4072 9.23163 91.1572 8.93475 90.8213 8.716C90.4854 8.49725 90.0557 8.38788 89.5322 8.38788C89.0869 8.38788 88.7041 8.48553 88.3838 8.68085C88.0635 8.87616 87.8018 9.1496 87.5986 9.50116C87.4033 9.85272 87.2549 10.2668 87.1533 10.7433C87.0596 11.2121 87.0127 11.7277 87.0127 12.2902V12.759C87.0127 13.2668 87.083 13.7355 87.2236 14.1652C87.3721 14.5949 87.5791 14.966 87.8447 15.2785C88.1182 15.591 88.4463 15.8332 88.8291 16.0051C89.2197 16.1769 89.6611 16.2629 90.1533 16.2629C90.7627 16.2629 91.3291 16.1457 91.8525 15.9113C92.3838 15.6691 92.8408 15.3058 93.2236 14.8215L94.8643 16.6027C94.5986 16.9855 94.2354 17.3527 93.7744 17.7043C93.3213 18.0558 92.7744 18.3449 92.1338 18.5715C91.4932 18.7902 90.7627 18.8996 89.9424 18.8996ZM103.911 15.8058V10.1574C103.911 9.75116 103.845 9.4035 103.712 9.11444C103.579 8.81757 103.372 8.5871 103.091 8.42303C102.817 8.25897 102.462 8.17694 102.024 8.17694C101.649 8.17694 101.325 8.24335 101.052 8.37616C100.778 8.50116 100.567 8.68475 100.419 8.92694C100.271 9.16132 100.196 9.43866 100.196 9.75897H96.8213C96.8213 9.21991 96.9463 8.70819 97.1963 8.22382C97.4463 7.73944 97.8096 7.31366 98.2861 6.94647C98.7627 6.57147 99.3291 6.2785 99.9854 6.06757C100.649 5.85663 101.392 5.75116 102.212 5.75116C103.196 5.75116 104.071 5.91522 104.837 6.24335C105.603 6.57147 106.204 7.06366 106.642 7.71991C107.087 8.37616 107.31 9.19647 107.31 10.1808V15.6066C107.31 16.3019 107.353 16.8723 107.438 17.3176C107.524 17.7551 107.649 18.1379 107.813 18.466V18.6652H104.403C104.239 18.3215 104.114 17.8918 104.028 17.3762C103.95 16.8527 103.911 16.3293 103.911 15.8058ZM104.356 10.9426L104.38 12.8527H102.493C102.048 12.8527 101.661 12.9035 101.333 13.0051C101.005 13.1066 100.735 13.2512 100.524 13.4387C100.313 13.6183 100.157 13.8293 100.056 14.0715C99.9619 14.3137 99.915 14.5793 99.915 14.8683C99.915 15.1574 99.9814 15.4191 100.114 15.6535C100.247 15.8801 100.438 16.0598 100.688 16.1926C100.938 16.3176 101.231 16.3801 101.567 16.3801C102.075 16.3801 102.517 16.2785 102.892 16.0754C103.267 15.8723 103.556 15.6223 103.759 15.3254C103.97 15.0285 104.079 14.7473 104.087 14.4816L104.978 15.9113C104.853 16.2316 104.681 16.5637 104.462 16.9074C104.251 17.2512 103.981 17.5754 103.653 17.8801C103.325 18.1769 102.931 18.423 102.47 18.6183C102.009 18.8058 101.462 18.8996 100.829 18.8996C100.024 18.8996 99.2939 18.7394 98.6377 18.4191C97.9893 18.091 97.4736 17.6418 97.0908 17.0715C96.7158 16.4933 96.5283 15.8371 96.5283 15.1027C96.5283 14.4387 96.6533 13.8488 96.9033 13.3332C97.1533 12.8176 97.5205 12.384 98.0049 12.0324C98.4971 11.673 99.1104 11.4035 99.8447 11.2238C100.579 11.0363 101.431 10.9426 102.399 10.9426H104.356ZM116.122 5.98553V8.37616H108.739V5.98553H116.122ZM110.567 2.85663H113.942V14.8449C113.942 15.2121 113.989 15.4933 114.083 15.6887C114.185 15.884 114.333 16.0207 114.528 16.0988C114.724 16.1691 114.97 16.2043 115.267 16.2043C115.478 16.2043 115.665 16.1965 115.829 16.1808C116.001 16.1574 116.146 16.134 116.263 16.1105L116.274 18.5949C115.985 18.6887 115.673 18.7629 115.337 18.8176C115.001 18.8723 114.63 18.8996 114.224 18.8996C113.481 18.8996 112.833 18.7785 112.278 18.5363C111.731 18.2863 111.31 17.8879 111.013 17.341C110.716 16.7941 110.567 16.0754 110.567 15.1848V2.85663Z" fill="#495057"/>
<path d="M127.747 1.60272V18.6652H124.231V1.60272H127.747ZM134.544 8.89178V11.634H126.786V8.89178H134.544ZM135.364 1.60272V4.35663H126.786V1.60272H135.364ZM140.755 5.98553V18.6652H137.368V5.98553H140.755ZM137.157 2.68085C137.157 2.18866 137.329 1.78241 137.673 1.4621C138.017 1.14178 138.478 0.981628 139.056 0.981628C139.626 0.981628 140.083 1.14178 140.427 1.4621C140.778 1.78241 140.954 2.18866 140.954 2.68085C140.954 3.17303 140.778 3.57928 140.427 3.8996C140.083 4.21991 139.626 4.38007 139.056 4.38007C138.478 4.38007 138.017 4.21991 137.673 3.8996C137.329 3.57928 137.157 3.17303 137.157 2.68085ZM149.755 5.98553V8.37616H142.372V5.98553H149.755ZM144.2 2.85663H147.575V14.8449C147.575 15.2121 147.622 15.4933 147.716 15.6887C147.817 15.884 147.966 16.0207 148.161 16.0988C148.356 16.1691 148.603 16.2043 148.899 16.2043C149.11 16.2043 149.298 16.1965 149.462 16.1808C149.634 16.1574 149.778 16.134 149.896 16.1105L149.907 18.5949C149.618 18.6887 149.306 18.7629 148.97 18.8176C148.634 18.8723 148.263 18.8996 147.856 18.8996C147.114 18.8996 146.466 18.7785 145.911 18.5363C145.364 18.2863 144.942 17.8879 144.646 17.341C144.349 16.7941 144.2 16.0754 144.2 15.1848V2.85663ZM154.981 8.69257V18.6652H151.606V5.98553H154.771L154.981 8.69257ZM154.489 11.8801H153.575C153.575 10.9426 153.696 10.0988 153.938 9.34882C154.181 8.591 154.521 7.94647 154.958 7.41522C155.396 6.87616 155.915 6.466 156.517 6.18475C157.126 5.89569 157.806 5.75116 158.556 5.75116C159.149 5.75116 159.692 5.8371 160.185 6.00897C160.677 6.18085 161.099 6.45428 161.45 6.82928C161.81 7.20428 162.083 7.70038 162.271 8.31757C162.466 8.93475 162.563 9.68866 162.563 10.5793V18.6652H159.165V10.5676C159.165 10.0051 159.087 9.56757 158.931 9.25507C158.774 8.94257 158.544 8.72382 158.239 8.59882C157.942 8.466 157.575 8.3996 157.138 8.3996C156.685 8.3996 156.29 8.48944 155.954 8.66913C155.626 8.84882 155.353 9.09882 155.134 9.41913C154.923 9.73163 154.763 10.0988 154.653 10.5207C154.544 10.9426 154.489 11.3957 154.489 11.8801ZM170.966 18.8996C169.981 18.8996 169.099 18.7433 168.317 18.4308C167.536 18.1105 166.872 17.6691 166.325 17.1066C165.786 16.5441 165.372 15.8918 165.083 15.1496C164.794 14.3996 164.649 13.6027 164.649 12.759V12.2902C164.649 11.3293 164.786 10.4504 165.06 9.6535C165.333 8.85663 165.724 8.16522 166.231 7.57928C166.747 6.99335 167.372 6.54413 168.106 6.23163C168.841 5.91132 169.669 5.75116 170.591 5.75116C171.489 5.75116 172.286 5.8996 172.981 6.19647C173.677 6.49335 174.259 6.91522 174.728 7.4621C175.204 8.00897 175.563 8.66522 175.806 9.43085C176.048 10.1887 176.169 11.0324 176.169 11.9621V13.3683H166.091V11.1183H172.853V10.8605C172.853 10.3918 172.767 9.97382 172.595 9.60663C172.431 9.23163 172.181 8.93475 171.845 8.716C171.509 8.49725 171.079 8.38788 170.556 8.38788C170.11 8.38788 169.728 8.48553 169.407 8.68085C169.087 8.87616 168.825 9.1496 168.622 9.50116C168.427 9.85272 168.278 10.2668 168.177 10.7433C168.083 11.2121 168.036 11.7277 168.036 12.2902V12.759C168.036 13.2668 168.106 13.7355 168.247 14.1652C168.396 14.5949 168.603 14.966 168.868 15.2785C169.142 15.591 169.47 15.8332 169.853 16.0051C170.243 16.1769 170.685 16.2629 171.177 16.2629C171.786 16.2629 172.353 16.1457 172.876 15.9113C173.407 15.6691 173.864 15.3058 174.247 14.8215L175.888 16.6027C175.622 16.9855 175.259 17.3527 174.798 17.7043C174.345 18.0558 173.798 18.3449 173.157 18.5715C172.517 18.7902 171.786 18.8996 170.966 18.8996ZM184.946 15.1613C184.946 14.9191 184.876 14.7004 184.735 14.5051C184.595 14.3098 184.333 14.1301 183.95 13.966C183.575 13.7941 183.032 13.6379 182.321 13.4973C181.681 13.3566 181.083 13.1808 180.528 12.9699C179.981 12.7512 179.505 12.4894 179.099 12.1848C178.7 11.8801 178.388 11.5207 178.161 11.1066C177.935 10.6848 177.821 10.2043 177.821 9.66522C177.821 9.13397 177.935 8.63397 178.161 8.16522C178.396 7.69647 178.728 7.28241 179.157 6.92303C179.595 6.55585 180.126 6.27069 180.751 6.06757C181.384 5.85663 182.095 5.75116 182.884 5.75116C183.985 5.75116 184.931 5.92694 185.72 6.2785C186.517 6.63007 187.126 7.11444 187.548 7.73163C187.978 8.341 188.192 9.03632 188.192 9.81757H184.817C184.817 9.48944 184.747 9.19647 184.606 8.93866C184.474 8.67303 184.263 8.466 183.974 8.31757C183.692 8.16132 183.325 8.08319 182.872 8.08319C182.497 8.08319 182.173 8.1496 181.899 8.28241C181.626 8.40741 181.415 8.57928 181.267 8.79803C181.126 9.00897 181.056 9.24335 181.056 9.50116C181.056 9.69647 181.095 9.87225 181.173 10.0285C181.259 10.1769 181.396 10.3137 181.583 10.4387C181.771 10.5637 182.013 10.6808 182.31 10.7902C182.614 10.8918 182.989 10.9855 183.435 11.0715C184.349 11.259 185.165 11.5051 185.884 11.8098C186.603 12.1066 187.173 12.5129 187.595 13.0285C188.017 13.5363 188.228 14.2043 188.228 15.0324C188.228 15.5949 188.103 16.1105 187.853 16.5793C187.603 17.048 187.243 17.4582 186.774 17.8098C186.306 18.1535 185.743 18.423 185.087 18.6183C184.438 18.8058 183.708 18.8996 182.896 18.8996C181.716 18.8996 180.716 18.6887 179.896 18.2668C179.083 17.8449 178.466 17.3098 178.044 16.6613C177.63 16.0051 177.423 15.3332 177.423 14.6457H180.622C180.638 15.1066 180.755 15.4777 180.974 15.759C181.2 16.0402 181.485 16.2433 181.829 16.3683C182.181 16.4933 182.56 16.5558 182.966 16.5558C183.403 16.5558 183.767 16.4973 184.056 16.3801C184.345 16.2551 184.563 16.091 184.712 15.8879C184.868 15.6769 184.946 15.4348 184.946 15.1613ZM197.274 15.1613C197.274 14.9191 197.204 14.7004 197.063 14.5051C196.923 14.3098 196.661 14.1301 196.278 13.966C195.903 13.7941 195.36 13.6379 194.649 13.4973C194.009 13.3566 193.411 13.1808 192.856 12.9699C192.31 12.7512 191.833 12.4894 191.427 12.1848C191.028 11.8801 190.716 11.5207 190.489 11.1066C190.263 10.6848 190.149 10.2043 190.149 9.66522C190.149 9.13397 190.263 8.63397 190.489 8.16522C190.724 7.69647 191.056 7.28241 191.485 6.92303C191.923 6.55585 192.454 6.27069 193.079 6.06757C193.712 5.85663 194.423 5.75116 195.212 5.75116C196.313 5.75116 197.259 5.92694 198.048 6.2785C198.845 6.63007 199.454 7.11444 199.876 7.73163C200.306 8.341 200.521 9.03632 200.521 9.81757H197.146C197.146 9.48944 197.075 9.19647 196.935 8.93866C196.802 8.67303 196.591 8.466 196.302 8.31757C196.021 8.16132 195.653 8.08319 195.2 8.08319C194.825 8.08319 194.501 8.1496 194.228 8.28241C193.954 8.40741 193.743 8.57928 193.595 8.79803C193.454 9.00897 193.384 9.24335 193.384 9.50116C193.384 9.69647 193.423 9.87225 193.501 10.0285C193.587 10.1769 193.724 10.3137 193.911 10.4387C194.099 10.5637 194.341 10.6808 194.638 10.7902C194.942 10.8918 195.317 10.9855 195.763 11.0715C196.677 11.259 197.493 11.5051 198.212 11.8098C198.931 12.1066 199.501 12.5129 199.923 13.0285C200.345 13.5363 200.556 14.2043 200.556 15.0324C200.556 15.5949 200.431 16.1105 200.181 16.5793C199.931 17.048 199.571 17.4582 199.103 17.8098C198.634 18.1535 198.071 18.423 197.415 18.6183C196.767 18.8058 196.036 18.8996 195.224 18.8996C194.044 18.8996 193.044 18.6887 192.224 18.2668C191.411 17.8449 190.794 17.3098 190.372 16.6613C189.958 16.0051 189.751 15.3332 189.751 14.6457H192.95C192.966 15.1066 193.083 15.4777 193.302 15.759C193.528 16.0402 193.813 16.2433 194.157 16.3683C194.509 16.4933 194.888 16.5558 195.294 16.5558C195.731 16.5558 196.095 16.4973 196.384 16.3801C196.673 16.2551 196.892 16.091 197.04 15.8879C197.196 15.6769 197.274 15.4348 197.274 15.1613Z" fill="#5F6F52"/>
<path d="M59.4932 23.7121L62.0771 28.7092L64.668 23.7121H66.165L62.7334 29.9465V33.6652H61.4141V29.9465L57.9824 23.7121H59.4932ZM66.4658 30.049V29.8918C66.4658 29.3586 66.5433 28.8641 66.6982 28.4084C66.8532 27.9481 67.0765 27.5493 67.3682 27.2121C67.6598 26.8703 68.013 26.606 68.4277 26.4191C68.8424 26.2277 69.3073 26.132 69.8223 26.132C70.3418 26.132 70.8089 26.2277 71.2236 26.4191C71.6429 26.606 71.9984 26.8703 72.29 27.2121C72.5863 27.5493 72.8118 27.9481 72.9668 28.4084C73.1217 28.8641 73.1992 29.3586 73.1992 29.8918V30.049C73.1992 30.5822 73.1217 31.0767 72.9668 31.5324C72.8118 31.9881 72.5863 32.3869 72.29 32.7287C71.9984 33.0659 71.6452 33.3303 71.2305 33.5217C70.8203 33.7085 70.3555 33.8019 69.8359 33.8019C69.3164 33.8019 68.8493 33.7085 68.4346 33.5217C68.0199 33.3303 67.6644 33.0659 67.3682 32.7287C67.0765 32.3869 66.8532 31.9881 66.6982 31.5324C66.5433 31.0767 66.4658 30.5822 66.4658 30.049ZM67.7305 29.8918V30.049C67.7305 30.4182 67.7738 30.7668 67.8604 31.0949C67.9469 31.4185 68.0768 31.7056 68.25 31.9562C68.4277 32.2069 68.6488 32.4051 68.9131 32.551C69.1774 32.6922 69.485 32.7629 69.8359 32.7629C70.1823 32.7629 70.4854 32.6922 70.7451 32.551C71.0094 32.4051 71.2282 32.2069 71.4014 31.9562C71.5745 31.7056 71.7044 31.4185 71.791 31.0949C71.8822 30.7668 71.9277 30.4182 71.9277 30.049V29.8918C71.9277 29.5272 71.8822 29.1831 71.791 28.8596C71.7044 28.5314 71.5723 28.242 71.3945 27.9914C71.2214 27.7362 71.0026 27.5357 70.7383 27.3898C70.4785 27.244 70.1732 27.1711 69.8223 27.1711C69.4759 27.1711 69.1706 27.244 68.9062 27.3898C68.6465 27.5357 68.4277 27.7362 68.25 27.9914C68.0768 28.242 67.9469 28.5314 67.8604 28.8596C67.7738 29.1831 67.7305 29.5272 67.7305 29.8918ZM79.5771 26.2687H80.7256V33.508C80.7256 34.1597 80.5934 34.7157 80.3291 35.176C80.0648 35.6363 79.6956 35.9849 79.2217 36.2219C78.7523 36.4634 78.21 36.5842 77.5947 36.5842C77.3395 36.5842 77.0387 36.5432 76.6924 36.4611C76.3506 36.3836 76.0133 36.2492 75.6807 36.0578C75.3525 35.871 75.0768 35.618 74.8535 35.299L75.5166 34.5471C75.8265 34.9208 76.1501 35.1805 76.4873 35.3264C76.8291 35.4722 77.1663 35.5451 77.499 35.5451C77.9001 35.5451 78.2464 35.4699 78.5381 35.3195C78.8298 35.1691 79.0553 34.9458 79.2148 34.6496C79.3789 34.3579 79.4609 33.9979 79.4609 33.5695V27.8957L79.5771 26.2687ZM74.4844 30.049V29.9055C74.4844 29.3404 74.5505 28.8277 74.6826 28.3674C74.8193 27.9025 75.013 27.5038 75.2637 27.1711C75.5189 26.8384 75.8265 26.5832 76.1865 26.4055C76.5465 26.2232 76.9521 26.132 77.4033 26.132C77.8682 26.132 78.2738 26.2141 78.6201 26.3781C78.971 26.5376 79.2673 26.7723 79.5088 27.0822C79.7549 27.3876 79.9486 27.7567 80.0898 28.1896C80.2311 28.6226 80.3291 29.1125 80.3838 29.6594V30.2883C80.3337 30.8306 80.2357 31.3182 80.0898 31.7512C79.9486 32.1841 79.7549 32.5532 79.5088 32.8586C79.2673 33.1639 78.971 33.3986 78.6201 33.5627C78.2692 33.7222 77.859 33.8019 77.3896 33.8019C76.9476 33.8019 76.5465 33.7085 76.1865 33.5217C75.8311 33.3348 75.5257 33.0728 75.2705 32.7355C75.0153 32.3983 74.8193 32.0018 74.6826 31.5461C74.5505 31.0858 74.4844 30.5868 74.4844 30.049ZM75.749 29.9055V30.049C75.749 30.4182 75.7855 30.7645 75.8584 31.0881C75.9359 31.4116 76.0521 31.6965 76.207 31.9426C76.3665 32.1887 76.5693 32.3823 76.8154 32.5236C77.0615 32.6603 77.3555 32.7287 77.6973 32.7287C78.1165 32.7287 78.4629 32.6398 78.7363 32.4621C79.0098 32.2844 79.2262 32.0497 79.3857 31.758C79.5498 31.4663 79.6774 31.1496 79.7686 30.8078V29.1603C79.7184 28.9097 79.641 28.6682 79.5361 28.4357C79.4359 28.1988 79.3037 27.9891 79.1396 27.8068C78.9801 27.62 78.7819 27.4719 78.5449 27.3625C78.3079 27.2531 78.0299 27.1984 77.7109 27.1984C77.3646 27.1984 77.0661 27.2713 76.8154 27.4172C76.5693 27.5585 76.3665 27.7544 76.207 28.0051C76.0521 28.2512 75.9359 28.5383 75.8584 28.8664C75.7855 29.19 75.749 29.5363 75.749 29.9055ZM87.0078 32.4006V28.593C87.0078 28.3013 86.9486 28.0484 86.8301 27.8342C86.7161 27.6154 86.543 27.4468 86.3105 27.3283C86.0781 27.2098 85.791 27.1506 85.4492 27.1506C85.1302 27.1506 84.8499 27.2053 84.6084 27.3146C84.3714 27.424 84.1846 27.5676 84.0479 27.7453C83.9157 27.923 83.8496 28.1144 83.8496 28.3195H82.585C82.585 28.0552 82.6533 27.7932 82.79 27.5334C82.9268 27.2736 83.1227 27.0389 83.3779 26.8293C83.6377 26.6151 83.9476 26.4465 84.3076 26.3234C84.6722 26.1958 85.0778 26.132 85.5244 26.132C86.0622 26.132 86.5361 26.2232 86.9463 26.4055C87.361 26.5877 87.6846 26.8635 87.917 27.2326C88.154 27.5972 88.2725 28.0552 88.2725 28.6066V32.0519C88.2725 32.298 88.293 32.5601 88.334 32.8381C88.3796 33.1161 88.4456 33.3553 88.5322 33.5558V33.6652H87.2129C87.1491 33.5194 87.099 33.3257 87.0625 33.0842C87.026 32.8381 87.0078 32.6102 87.0078 32.4006ZM87.2266 29.1808L87.2402 30.0695H85.9619C85.6019 30.0695 85.2806 30.0991 84.998 30.1584C84.7155 30.2131 84.4785 30.2974 84.2871 30.4113C84.0957 30.5252 83.9499 30.6688 83.8496 30.842C83.7493 31.0106 83.6992 31.2088 83.6992 31.4367C83.6992 31.6691 83.7516 31.881 83.8564 32.0724C83.9613 32.2639 84.1185 32.4165 84.3281 32.5305C84.5423 32.6398 84.8044 32.6945 85.1143 32.6945C85.5016 32.6945 85.8434 32.6125 86.1396 32.4484C86.4359 32.2844 86.6706 32.0838 86.8438 31.8469C87.0215 31.6099 87.1172 31.3797 87.1309 31.1564L87.6709 31.7648C87.639 31.9562 87.5524 32.1682 87.4111 32.4006C87.2699 32.633 87.0807 32.8563 86.8438 33.0705C86.6113 33.2801 86.3333 33.4556 86.0098 33.5969C85.6908 33.7336 85.3307 33.8019 84.9297 33.8019C84.4284 33.8019 83.9886 33.704 83.6104 33.508C83.2367 33.312 82.945 33.05 82.7354 32.7219C82.5303 32.3892 82.4277 32.0178 82.4277 31.6076C82.4277 31.2111 82.5052 30.8625 82.6602 30.5617C82.8151 30.2564 83.0384 30.0034 83.3301 29.8029C83.6217 29.5978 83.9727 29.4429 84.3828 29.3381C84.793 29.2333 85.251 29.1808 85.7568 29.1808H87.2266ZM99.2305 31.1496C99.2305 30.9172 99.194 30.7121 99.1211 30.5344C99.0527 30.3521 98.9297 30.188 98.752 30.0422C98.5788 29.8963 98.3372 29.7573 98.0273 29.6252C97.722 29.493 97.3346 29.3586 96.8652 29.2219C96.373 29.076 95.9287 28.9142 95.5322 28.7365C95.1357 28.5542 94.7962 28.3469 94.5137 28.1144C94.2311 27.882 94.0146 27.6154 93.8643 27.3146C93.7139 27.0139 93.6387 26.6698 93.6387 26.2824C93.6387 25.895 93.7184 25.5373 93.8779 25.2092C94.0374 24.881 94.2653 24.5962 94.5615 24.3547C94.8623 24.1086 95.2201 23.9172 95.6348 23.7805C96.0495 23.6437 96.512 23.5754 97.0225 23.5754C97.7699 23.5754 98.4033 23.7189 98.9229 24.006C99.4469 24.2886 99.8457 24.66 100.119 25.1203C100.393 25.576 100.529 26.0637 100.529 26.5832H99.2168C99.2168 26.2095 99.137 25.8791 98.9775 25.592C98.818 25.3003 98.5765 25.0724 98.2529 24.9084C97.9294 24.7398 97.5192 24.6555 97.0225 24.6555C96.5531 24.6555 96.1657 24.7261 95.8604 24.8674C95.555 25.0086 95.3271 25.2001 95.1768 25.4416C95.0309 25.6831 94.958 25.9588 94.958 26.2687C94.958 26.4784 95.0013 26.6698 95.0879 26.843C95.179 27.0116 95.318 27.1688 95.5049 27.3146C95.6963 27.4605 95.9378 27.5949 96.2295 27.718C96.5257 27.841 96.8789 27.9595 97.2891 28.0734C97.8542 28.2329 98.3418 28.4107 98.752 28.6066C99.1621 28.8026 99.4993 29.0236 99.7637 29.2697C100.033 29.5113 100.231 29.787 100.358 30.0969C100.491 30.4022 100.557 30.7486 100.557 31.1359C100.557 31.5415 100.475 31.9084 100.311 32.2365C100.146 32.5646 99.9118 32.8449 99.6064 33.0773C99.3011 33.3098 98.9342 33.4898 98.5059 33.6174C98.082 33.7404 97.6081 33.8019 97.084 33.8019C96.6237 33.8019 96.1702 33.7381 95.7236 33.6105C95.2816 33.4829 94.8783 33.2915 94.5137 33.0363C94.1536 32.7811 93.8643 32.4667 93.6455 32.093C93.4313 31.7147 93.3242 31.2772 93.3242 30.7805H94.6367C94.6367 31.1223 94.7028 31.4162 94.835 31.6623C94.9671 31.9038 95.1471 32.1043 95.375 32.2639C95.6074 32.4234 95.8695 32.5418 96.1611 32.6193C96.4574 32.6922 96.765 32.7287 97.084 32.7287C97.5443 32.7287 97.9339 32.6649 98.2529 32.5373C98.5719 32.4097 98.8135 32.2274 98.9775 31.9904C99.1462 31.7534 99.2305 31.4732 99.2305 31.1496ZM105.144 26.2687V27.2394H101.145V26.2687H105.144ZM102.498 24.4709H103.763V31.8332C103.763 32.0838 103.801 32.273 103.879 32.4006C103.956 32.5282 104.057 32.6125 104.18 32.6535C104.303 32.6945 104.435 32.715 104.576 32.715C104.681 32.715 104.79 32.7059 104.904 32.6877C105.023 32.6649 105.112 32.6467 105.171 32.633L105.178 33.6652C105.077 33.6971 104.945 33.7267 104.781 33.7541C104.622 33.786 104.428 33.8019 104.2 33.8019C103.89 33.8019 103.605 33.7404 103.346 33.6174C103.086 33.4943 102.879 33.2892 102.724 33.0021C102.573 32.7105 102.498 32.3185 102.498 31.8264V24.4709ZM111.152 31.9562V26.2687H112.424V33.6652H111.214L111.152 31.9562ZM111.392 30.3976L111.918 30.384C111.918 30.8762 111.866 31.3319 111.761 31.7512C111.66 32.1659 111.496 32.5259 111.269 32.8312C111.041 33.1366 110.742 33.3758 110.373 33.549C110.004 33.7176 109.555 33.8019 109.026 33.8019C108.666 33.8019 108.336 33.7495 108.035 33.6447C107.739 33.5399 107.484 33.3781 107.27 33.1594C107.055 32.9406 106.889 32.6558 106.771 32.3049C106.657 31.954 106.6 31.5324 106.6 31.0402V26.2687H107.864V31.0539C107.864 31.3866 107.901 31.6623 107.974 31.881C108.051 32.0952 108.154 32.2661 108.281 32.3937C108.413 32.5168 108.559 32.6034 108.719 32.6535C108.883 32.7036 109.051 32.7287 109.225 32.7287C109.762 32.7287 110.188 32.6262 110.503 32.4211C110.817 32.2114 111.043 31.9312 111.18 31.5803C111.321 31.2248 111.392 30.8306 111.392 30.3976ZM119.014 32.2297V23.1652H120.285V33.6652H119.123L119.014 32.2297ZM114.037 30.049V29.9055C114.037 29.3404 114.105 28.8277 114.242 28.3674C114.383 27.9025 114.582 27.5038 114.837 27.1711C115.097 26.8384 115.404 26.5832 115.76 26.4055C116.12 26.2232 116.521 26.132 116.963 26.132C117.428 26.132 117.833 26.2141 118.18 26.3781C118.531 26.5376 118.827 26.7723 119.068 27.0822C119.314 27.3876 119.508 27.7567 119.649 28.1896C119.791 28.6226 119.889 29.1125 119.943 29.6594V30.2883C119.893 30.8306 119.795 31.3182 119.649 31.7512C119.508 32.1841 119.314 32.5532 119.068 32.8586C118.827 33.1639 118.531 33.3986 118.18 33.5627C117.829 33.7222 117.419 33.8019 116.949 33.8019C116.516 33.8019 116.12 33.7085 115.76 33.5217C115.404 33.3348 115.097 33.0728 114.837 32.7355C114.582 32.3983 114.383 32.0018 114.242 31.5461C114.105 31.0858 114.037 30.5868 114.037 30.049ZM115.309 29.9055V30.049C115.309 30.4182 115.345 30.7645 115.418 31.0881C115.495 31.4116 115.614 31.6965 115.773 31.9426C115.933 32.1887 116.136 32.3823 116.382 32.5236C116.628 32.6603 116.922 32.7287 117.264 32.7287C117.683 32.7287 118.027 32.6398 118.296 32.4621C118.569 32.2844 118.788 32.0497 118.952 31.758C119.116 31.4663 119.244 31.1496 119.335 30.8078V29.1603C119.28 28.9097 119.201 28.6682 119.096 28.4357C118.995 28.1988 118.863 27.9891 118.699 27.8068C118.54 27.62 118.341 27.4719 118.104 27.3625C117.872 27.2531 117.596 27.1984 117.277 27.1984C116.931 27.1984 116.632 27.2713 116.382 27.4172C116.136 27.5585 115.933 27.7544 115.773 28.0051C115.614 28.2512 115.495 28.5383 115.418 28.8664C115.345 29.19 115.309 29.5363 115.309 29.9055ZM123.628 26.2687V33.6652H122.356V26.2687H123.628ZM122.261 24.3068C122.261 24.1017 122.322 23.9286 122.445 23.7873C122.573 23.646 122.76 23.5754 123.006 23.5754C123.247 23.5754 123.432 23.646 123.56 23.7873C123.692 23.9286 123.758 24.1017 123.758 24.3068C123.758 24.5028 123.692 24.6714 123.56 24.8127C123.432 24.9494 123.247 25.0178 123.006 25.0178C122.76 25.0178 122.573 24.9494 122.445 24.8127C122.322 24.6714 122.261 24.5028 122.261 24.3068ZM125.323 30.049V29.8918C125.323 29.3586 125.401 28.8641 125.556 28.4084C125.711 27.9481 125.934 27.5493 126.226 27.2121C126.517 26.8703 126.87 26.606 127.285 26.4191C127.7 26.2277 128.165 26.132 128.68 26.132C129.199 26.132 129.666 26.2277 130.081 26.4191C130.5 26.606 130.856 26.8703 131.147 27.2121C131.444 27.5493 131.669 27.9481 131.824 28.4084C131.979 28.8641 132.057 29.3586 132.057 29.8918V30.049C132.057 30.5822 131.979 31.0767 131.824 31.5324C131.669 31.9881 131.444 32.3869 131.147 32.7287C130.856 33.0659 130.503 33.3303 130.088 33.5217C129.678 33.7085 129.213 33.8019 128.693 33.8019C128.174 33.8019 127.707 33.7085 127.292 33.5217C126.877 33.3303 126.522 33.0659 126.226 32.7287C125.934 32.3869 125.711 31.9881 125.556 31.5324C125.401 31.0767 125.323 30.5822 125.323 30.049ZM126.588 29.8918V30.049C126.588 30.4182 126.631 30.7668 126.718 31.0949C126.804 31.4185 126.934 31.7056 127.107 31.9562C127.285 32.2069 127.506 32.4051 127.771 32.551C128.035 32.6922 128.342 32.7629 128.693 32.7629C129.04 32.7629 129.343 32.6922 129.603 32.551C129.867 32.4051 130.086 32.2069 130.259 31.9562C130.432 31.7056 130.562 31.4185 130.648 31.0949C130.74 30.7668 130.785 30.4182 130.785 30.049V29.8918C130.785 29.5272 130.74 29.1831 130.648 28.8596C130.562 28.5314 130.43 28.242 130.252 27.9914C130.079 27.7362 129.86 27.5357 129.596 27.3898C129.336 27.244 129.031 27.1711 128.68 27.1711C128.333 27.1711 128.028 27.244 127.764 27.3898C127.504 27.5357 127.285 27.7362 127.107 27.9914C126.934 28.242 126.804 28.5314 126.718 28.8596C126.631 29.1831 126.588 29.5272 126.588 29.8918Z" fill="#495057"/>
</svg>
