<svg width="84" height="84" viewBox="0 0 84 84" fill="none" xmlns="http://www.w3.org/2000/svg">
<path d="M30.9739 14.0724H66.5027" stroke="#5F6F52" stroke-width="3" stroke-miterlimit="10" stroke-linecap="round" stroke-linejoin="round"/>
<path d="M2 69.9276C2 63.2602 7.40507 57.8551 14.0724 57.8551C20.7398 57.8551 26.1449 63.2602 26.1449 69.9276C26.1449 76.5949 20.7398 82 14.0724 82C7.40507 82 2 76.5949 2 69.9276Z" stroke="#5F6F52" stroke-width="3" stroke-miterlimit="10" stroke-linecap="round" stroke-linejoin="round"/>
<path d="M2 69.9276V14.0724C2 7.40505 7.40507 1.99998 14.0724 1.99998C20.7398 1.99998 26.1449 7.40505 26.1449 14.0724V69.9276" stroke="#5F6F52" stroke-width="3" stroke-miterlimit="10" stroke-linecap="round" stroke-linejoin="round"/>
<path d="M6.82898 69.9276C6.82898 65.9271 10.072 62.6841 14.0724 62.6841C18.0729 62.6841 21.3159 65.9271 21.3159 69.9276C21.3159 73.928 18.0729 77.171 14.0724 77.171C10.072 77.171 6.82898 73.928 6.82898 69.9276Z" stroke="#5F6F52" stroke-width="3" stroke-miterlimit="10" stroke-linecap="round" stroke-linejoin="round"/>
<path d="M11.658 69.9276C11.658 68.5941 12.739 67.5131 14.0724 67.5131C15.4059 67.5131 16.4869 68.5941 16.4869 69.9276C16.4869 71.261 15.4059 72.342 14.0724 72.342C12.739 72.342 11.658 71.261 11.658 69.9276Z" stroke="#5F6F52" stroke-width="3" stroke-miterlimit="10" stroke-linecap="round" stroke-linejoin="round"/>
<path d="M63.9401 70.3646L81.6415 16.3293C81.8741 15.6192 82 14.8605 82 14.0724C82 10.0721 78.757 6.82897 74.7566 6.82897C72.0135 6.82897 69.6266 8.35364 68.3971 10.6018L47.8753 48.1972C57.2097 48.1972 64.7767 55.7642 64.7767 65.0986C64.7767 74.433 57.2097 82 47.8753 82H14.0724" stroke="#5F6F52" stroke-width="3" stroke-miterlimit="10" stroke-linecap="round" stroke-linejoin="round"/>
</svg>
