<svg width="14" height="15" viewBox="0 0 14 15" fill="none" xmlns="http://www.w3.org/2000/svg">
<path fill-rule="evenodd" clip-rule="evenodd" d="M4.22102 1.16772C4.43825 0.709992 4.90684 0.391907 5.44836 0.391907H8.55164C9.09316 0.391907 9.56097 0.709992 9.77898 1.16772C10.3089 1.17238 10.7224 1.19643 11.0917 1.34073C11.5325 1.51317 11.9159 1.80623 12.198 2.18637C12.4827 2.56963 12.6169 3.06072 12.8 3.73646L13.3757 5.84823L13.5929 6.5007L13.6115 6.52397C14.3105 7.41926 13.9777 8.75057 13.3121 11.4124C12.8885 13.106 12.6774 13.9524 12.0459 14.4458C11.4144 14.9385 10.5416 14.9385 8.79602 14.9385H5.20398C3.45839 14.9385 2.5856 14.9385 1.95408 14.4458C1.32257 13.9524 1.11077 13.106 0.687947 11.4124C0.0222953 8.75057 -0.310531 7.41926 0.388481 6.52397L0.407101 6.5007L0.62433 5.84823L1.19999 3.73646C1.38386 3.06072 1.51807 2.56885 1.80202 2.1856C2.08421 1.80574 2.46759 1.51296 2.90834 1.34073C3.27763 1.19643 3.69036 1.1716 4.22102 1.16772ZM4.22257 2.333C3.70898 2.33843 3.50261 2.35783 3.33193 2.42455C3.09451 2.5174 2.88802 2.67522 2.73611 2.87995C2.59956 3.06382 2.51888 3.32062 2.29389 4.14842L1.85167 5.7691C2.64301 5.62868 3.7245 5.62868 5.20321 5.62868H8.79602C10.2755 5.62868 11.3562 5.62868 12.1476 5.76832L11.7061 4.14764C11.4811 3.31984 11.4004 3.06305 11.2639 2.87918C11.112 2.67445 10.9055 2.51662 10.6681 2.42377C10.4974 2.35705 10.291 2.33766 9.77743 2.33223C9.66727 2.56408 9.49364 2.75995 9.27669 2.89713C9.05973 3.03431 8.80832 3.10717 8.55164 3.10727H5.44836C5.19176 3.10724 4.94041 3.03449 4.72346 2.89746C4.50651 2.76042 4.33284 2.56471 4.22257 2.333Z" fill="white"/>
</svg>
