<svg width="86" height="80" viewBox="0 0 86 80" fill="none" xmlns="http://www.w3.org/2000/svg">
<path d="M85.8575 21.4286C85.8512 15.9084 81.3778 11.4349 75.8575 11.4286H33.0002C32.1231 11.4255 31.2498 11.5452 30.4059 11.7843C29.8716 11.9129 15.7601 17.2329 7.39582 20.3915H7.38439C5.75415 20.8464 4.27062 21.7184 3.08009 22.9215C1.18893 24.79 0.130196 27.3416 0.142935 30.0001C0.145306 33.5147 1.99407 36.7695 5.01152 38.5716C1.99534 40.3748 0.147014 43.6289 0.142935 47.143C0.148517 50.6586 1.99974 53.913 5.01867 55.7145C1.15523 58.0171 -0.693173 62.6175 0.503112 66.9531C1.6994 71.2887 5.64539 74.2903 10.143 74.286H53.0003C54.4783 74.2847 55.9372 73.9528 57.2703 73.3145C57.2808 73.3152 57.2913 73.3152 57.3017 73.3145L80.2861 64.6817C83.5686 63.0646 85.7025 59.7804 85.8464 56.1241C85.9904 52.4678 84.1213 49.026 80.9761 47.1559C81.689 46.7427 82.3422 46.2342 82.9175 45.6444C84.8083 43.7778 85.868 41.2285 85.8575 38.5716C85.845 35.0612 83.9972 31.8131 80.9861 30.0087C81.6958 29.5957 82.3465 29.0888 82.9204 28.5015C84.8101 26.6344 85.8687 24.0852 85.8575 21.4286ZM31.1931 14.53C31.7813 14.3656 32.3894 14.2834 33.0002 14.2857H75.8575C79.8005 14.2905 82.9957 17.4857 83.0004 21.4286C83.0091 23.3244 82.2537 25.1438 80.9047 26.4758C80.4193 26.981 79.8511 27.3994 79.2247 27.7129C79.1475 27.7544 79.0818 27.7929 79.0089 27.8301C77.0818 28.5444 73.6889 29.8187 68.4303 31.793L62.0817 34.1772C63.5089 31.0821 63.2601 27.4729 61.4216 24.6028C59.5832 21.7328 56.4087 19.9977 53.0003 20H16.5316C23.6445 17.3215 30.6116 14.7143 31.1931 14.53ZM3.00009 30.0001C2.99194 28.1009 3.75008 26.2787 5.10295 24.9458C5.96646 24.0691 7.04933 23.4401 8.23868 23.1243C8.27439 23.1129 8.31582 23.1001 8.35725 23.0843C8.94015 22.9316 9.54041 22.8553 10.143 22.8572H53.0003C56.9432 22.8619 60.1384 26.0571 60.1432 30.0001C60.1328 32.6728 58.6413 35.1193 56.2703 36.353C56.2285 36.369 56.1875 36.3871 56.1474 36.4073C55.1706 36.8959 54.0925 37.148 53.0003 37.143H10.143C6.20002 37.1383 3.00481 33.943 3.00009 30.0001ZM3.00009 47.143C3.00716 43.201 6.201 40.0072 10.143 40.0001H53.0003C56.9432 40.0049 60.1384 43.2001 60.1432 47.143C60.1328 49.8157 58.6413 52.2623 56.2703 53.4959C56.2285 53.5119 56.1875 53.53 56.1474 53.5502C55.1706 54.0389 54.0925 54.2909 53.0003 54.2859H10.143C6.20002 54.2812 3.00481 51.086 3.00009 47.143ZM10.143 71.4288C6.19807 71.4288 3.00009 68.2308 3.00009 64.2859C3.00009 60.341 6.19807 57.1431 10.143 57.1431H53.0003C56.9452 57.1431 60.1432 60.341 60.1432 64.2859C60.1432 68.2308 56.9452 71.4288 53.0003 71.4288H10.143ZM83.0004 55.7145C83.009 57.61 82.2542 59.4291 80.9061 60.7616C80.3925 61.2817 79.8023 61.7201 79.1561 62.0616L62.0717 68.4688C64.2006 63.8938 62.5666 58.4496 58.2703 55.803L77.1275 48.7287C80.5154 49.3332 82.987 52.2731 83.0004 55.7145ZM83.0004 38.5716C83.0091 40.4673 82.2537 42.2867 80.9047 43.6187C80.4193 44.1239 79.8511 44.5423 79.2247 44.8559C79.1461 44.8987 79.0718 44.9373 79.0061 44.9744L62.0803 51.3216C64.1961 46.745 62.5604 41.3091 58.2703 38.6601L69.4289 34.4687C72.6889 33.2444 75.2218 32.293 77.1432 31.5744C80.5252 32.1932 82.9864 35.1335 83.0004 38.5716Z" fill="#5F6F52"/>
<path d="M55.8574 30.0001C55.8574 29.2111 55.2178 28.5715 54.4289 28.5715H8.71439C7.92541 28.5715 7.28581 29.2111 7.28581 30.0001C7.28581 30.7891 7.92541 31.4287 8.71439 31.4287H54.4289C55.2178 31.4287 55.8574 30.7891 55.8574 30.0001Z" fill="#5F6F52"/>
<path d="M55.8574 47.1431C55.8574 46.3541 55.2178 45.7145 54.4289 45.7145H8.71439C7.92541 45.7145 7.28581 46.3541 7.28581 47.1431C7.28581 47.932 7.92541 48.5716 8.71439 48.5716H54.4289C55.2178 48.5716 55.8574 47.932 55.8574 47.1431Z" fill="#5F6F52"/>
<path d="M54.4289 62.8574H8.71439C7.92541 62.8574 7.28581 63.497 7.28581 64.2859C7.28581 65.0749 7.92541 65.7145 8.71439 65.7145H54.4289C55.2178 65.7145 55.8574 65.0749 55.8574 64.2859C55.8574 63.497 55.2178 62.8574 54.4289 62.8574Z" fill="#5F6F52"/>
<path d="M14.4287 0C13.6397 0 13.0001 0.639596 13.0001 1.42858V4.28573C13.0001 5.07471 13.6397 5.71431 14.4287 5.71431C15.2177 5.71431 15.8573 5.07471 15.8573 4.28573V1.42858C15.8573 0.639596 15.2177 0 14.4287 0Z" fill="#5F6F52"/>
<path d="M13.0001 12.8572C13.0001 13.6462 13.6397 14.2858 14.4287 14.2858C15.2177 14.2858 15.8573 13.6462 15.8573 12.8572V10C15.8573 9.21107 15.2177 8.57147 14.4287 8.57147C13.6397 8.57147 13.0001 9.21107 13.0001 10V12.8572Z" fill="#5F6F52"/>
<path d="M11.5715 5.71429H8.71439C7.92541 5.71429 7.28581 6.35389 7.28581 7.14287C7.28581 7.93185 7.92541 8.57145 8.71439 8.57145H11.5715C12.3605 8.57145 13.0001 7.93185 13.0001 7.14287C13.0001 6.35389 12.3605 5.71429 11.5715 5.71429Z" fill="#5F6F52"/>
<path d="M17.2858 8.57145H20.143C20.932 8.57145 21.5716 7.93185 21.5716 7.14287C21.5716 6.35389 20.932 5.71429 20.143 5.71429H17.2858C16.4969 5.71429 15.8573 6.35389 15.8573 7.14287C15.8573 7.93185 16.4969 8.57145 17.2858 8.57145Z" fill="#5F6F52"/>
<path d="M83.2961 75.4188C82.7356 74.8775 81.8446 74.8852 81.2935 75.4362C80.7425 75.9873 80.7347 76.8783 81.2761 77.4389L83.419 79.5817C83.9795 80.1231 84.8705 80.1154 85.4216 79.5643C85.9726 79.0133 85.9804 78.1223 85.439 77.5617L83.2961 75.4188Z" fill="#5F6F52"/>
<path d="M76.9904 73.1531C77.5509 73.6945 78.4419 73.6868 78.993 73.1357C79.544 72.5847 79.5518 71.6937 79.0104 71.1331L76.8675 68.9903C76.307 68.4489 75.4159 68.4566 74.8649 69.0077C74.3138 69.5587 74.3061 70.4497 74.8475 71.0103L76.9904 73.1531Z" fill="#5F6F52"/>
<path d="M74.8475 79.5817C75.4054 80.1394 76.3096 80.1394 76.8675 79.5817L79.0104 77.4389C79.5518 76.8783 79.544 75.9873 78.993 75.4362C78.4419 74.8852 77.5509 74.8775 76.9904 75.4188L74.8475 77.5617C74.2898 78.1196 74.2898 79.0239 74.8475 79.5817Z" fill="#5F6F52"/>
<path d="M83.419 68.9903L81.2761 71.1331C80.9047 71.4918 80.7558 72.0229 80.8865 72.5224C81.0173 73.0219 81.4073 73.412 81.9068 73.5427C82.4063 73.6734 82.9374 73.5245 83.2961 73.1531L85.439 71.0103C85.9804 70.4497 85.9726 69.5587 85.4216 69.0077C84.8705 68.4566 83.9795 68.4489 83.419 68.9903Z" fill="#5F6F52"/>
</svg>
