<svg width="26" height="26" viewBox="0 0 26 26" fill="none" xmlns="http://www.w3.org/2000/svg">
<path fill-rule="evenodd" clip-rule="evenodd" d="M13.0011 4.91895C13.8917 4.91895 14.8052 4.94186 15.6907 4.97936L16.7365 5.02936L17.7375 5.08874L18.675 5.15228L19.5313 5.21895C20.4605 5.29007 21.3349 5.6866 22.0006 6.33878C22.6663 6.99096 23.0807 7.85701 23.1709 8.78457L23.2125 9.22728L23.2907 10.1752C23.3636 11.1575 23.4177 12.2283 23.4177 13.2523C23.4177 14.2762 23.3636 15.3471 23.2907 16.3294L23.2125 17.2773C23.199 17.4294 23.1855 17.5762 23.1709 17.72C23.0807 18.6477 22.6661 19.5139 22.0002 20.1661C21.3343 20.8183 20.4596 21.2147 19.5302 21.2856L18.6761 21.3512L17.7386 21.4158L16.7365 21.4752L15.6907 21.5252C14.7947 21.5641 13.8979 21.5843 13.0011 21.5856C12.1042 21.5843 11.2075 21.5641 10.3115 21.5252L9.26566 21.4752L8.26462 21.4158L7.32712 21.3512L6.47087 21.2856C5.54165 21.2145 4.66728 20.818 4.00157 20.1658C3.33586 19.5136 2.92147 18.6475 2.83129 17.72L2.78962 17.2773L2.71149 16.3294C2.63185 15.3055 2.58946 14.2792 2.58441 13.2523C2.58441 12.2283 2.63858 11.1575 2.71149 10.1752L2.78962 9.22728C2.80316 9.07519 2.8167 8.92832 2.83129 8.78457C2.92143 7.85717 3.33568 6.99125 4.00117 6.33909C4.66667 5.68694 5.5408 5.2903 6.46983 5.21895L7.32504 5.15228L8.26254 5.08874L9.26462 5.02936L10.3105 4.97936C11.2068 4.94044 12.1039 4.92029 13.0011 4.91895ZM10.9177 10.7262V15.7783C10.9177 16.2596 11.4386 16.5596 11.8552 16.32L16.2302 13.7939C16.3254 13.7391 16.4045 13.6602 16.4595 13.5651C16.5145 13.47 16.5434 13.3621 16.5434 13.2523C16.5434 13.1424 16.5145 13.0345 16.4595 12.9394C16.4045 12.8443 16.3254 12.7654 16.2302 12.7106L11.8552 10.1856C11.7602 10.1307 11.6524 10.1019 11.5426 10.1019C11.4329 10.1019 11.3251 10.1308 11.2301 10.1857C11.135 10.2406 11.0562 10.3196 11.0013 10.4146C10.9465 10.5097 10.9177 10.6175 10.9177 10.7273" fill="#5F6F52"/>
</svg>
